<svg version="1.1" id="Layer_1" xmlns="http://www.w3.org/2000/svg" xmlns:xlink="http://www.w3.org/1999/xlink" x="0px" y="0px"
	 width="100%" viewBox="0 0 600 143" enable-background="new 0 0 600 143" xml:space="preserve">
<path fill="#FFF" opacity="1.000000" stroke="none" 
	d="
M442.000000,144.000000 
	C294.666656,144.000000 147.833328,144.000000 1.000000,144.000000 
	C1.000000,96.333336 1.000000,48.666668 1.000000,1.000000 
	C201.000000,1.000000 401.000000,1.000000 601.000000,1.000000 
	C601.000000,48.666668 601.000000,96.333336 601.000000,144.000000 
	C548.166687,144.000000 495.333344,144.000000 442.000000,144.000000 
M252.997681,78.223686 
	C250.764069,81.035477 252.620209,82.756653 254.646118,84.446213 
	C261.168518,89.885757 267.765961,95.240913 274.121338,100.869263 
	C275.117249,101.751251 275.004242,103.885422 275.403992,105.440590 
	C273.915924,105.398331 272.300446,105.703072 270.975494,105.216568 
	C269.641022,104.726562 268.631256,103.400108 267.416168,102.528030 
	C263.889404,99.996872 260.331055,97.509758 256.785126,95.005363 
	C256.455566,95.354652 256.126007,95.703941 255.796478,96.053230 
	C256.816925,97.437973 257.733765,98.915588 258.876495,100.190750 
	C262.987061,104.777603 267.312103,109.181755 271.232758,113.922363 
	C272.189697,115.079422 271.914795,117.255257 272.206268,118.962677 
	C270.617523,118.550362 268.558899,118.629829 267.522400,117.639503 
	C263.314117,113.618698 259.451385,109.238525 255.388489,105.061638 
	C254.283783,103.925919 252.924454,103.037857 251.681992,102.036133 
	C251.298141,102.415329 250.914276,102.794518 250.530426,103.173706 
	C254.041351,108.141846 257.692474,113.020164 260.970886,118.137276 
	C261.861084,119.526764 261.626373,121.636971 261.907959,123.416389 
	C260.167816,122.739136 257.872559,122.546577 256.784241,121.300179 
	C252.227493,116.081604 248.032608,110.547043 243.705154,105.128250 
	C243.342224,105.314346 242.979279,105.500450 242.616348,105.686546 
	C244.295242,110.633232 245.974121,115.579918 247.653015,120.526611 
	C247.084183,120.865265 246.515335,121.203926 245.946487,121.542580 
	C244.498734,119.951538 242.867294,118.490799 241.631912,116.749107 
	C230.367035,100.867546 219.218979,84.902885 207.900894,69.059578 
	C206.295181,66.811859 204.272354,64.237305 201.875473,63.355419 
	C199.481598,62.474625 195.550827,62.547653 193.810745,64.008911 
	C192.028549,65.505547 191.658798,69.168503 191.502808,71.930237 
	C191.413483,73.511703 192.891830,75.238724 193.815567,76.811424 
	C201.653732,90.156319 209.413193,103.549805 217.451859,116.773323 
	C220.203690,121.300072 223.342529,125.690941 226.884369,129.621414 
	C245.281296,150.037018 278.277954,143.131653 286.930145,117.121117 
	C288.976990,110.967781 290.530487,104.651535 292.523895,98.478981 
	C297.379578,83.443336 302.341064,68.441711 307.303589,53.440815 
	C308.563538,49.632183 308.965179,46.027489 304.489655,44.189182 
	C300.209747,42.431232 297.604279,44.753666 295.726532,48.440178 
	C293.235443,53.330849 290.656372,58.177475 288.056702,63.011620 
	C287.294037,64.429825 286.332977,65.741341 285.462830,67.101753 
	C285.090179,66.907784 284.717560,66.713821 284.344910,66.519852 
	C285.682617,60.882477 286.981323,55.235485 288.368225,49.610249 
	C289.999084,42.995552 291.758514,36.412209 293.348053,29.787886 
	C293.808289,27.870031 294.047852,25.861582 294.088318,23.888502 
	C294.171844,19.814295 292.021088,17.227957 288.098145,16.469515 
	C284.255249,15.726547 281.431335,17.767570 280.252991,21.161871 
	C277.910065,27.910599 276.089508,34.839321 273.986816,41.673279 
	C272.616791,46.125912 271.129883,50.542591 269.695343,54.975368 
	C269.287720,54.870167 268.880127,54.764965 268.472504,54.659763 
	C268.819336,51.552212 269.108063,48.436867 269.523529,45.338524 
	C270.938385,34.788517 272.606873,24.266932 273.742462,13.687694 
	C274.229401,9.151613 271.067352,5.415771 267.265747,4.952744 
	C262.550720,4.378471 260.061432,7.142295 259.143951,11.277558 
	C257.884857,16.952448 256.993744,22.710651 256.005585,28.443602 
	C254.300461,38.336082 252.642029,48.236607 250.964020,58.133755 
	C250.557281,58.094158 250.150543,58.054562 249.743805,58.014965 
	C249.618744,55.558681 249.482666,53.102901 249.370621,50.646023 
	C248.961090,41.666862 248.620132,32.684006 248.127472,23.709455 
	C247.907028,19.693716 245.618210,17.289112 241.627243,16.690603 
	C237.228195,16.030895 235.265656,18.847485 234.095352,22.401697 
	C233.530014,24.118668 233.245941,25.984632 233.170273,27.797155 
	C232.732391,38.283447 232.329666,48.772167 232.046890,59.263618 
	C231.870865,65.793503 233.409576,67.281250 240.106293,67.990654 
	C248.879242,68.919991 257.660980,69.811516 266.392944,71.044777 
	C268.144501,71.292160 269.689911,72.998909 271.330383,74.032761 
	C269.545807,75.019669 267.848755,76.589668 265.958649,76.873390 
	C261.890961,77.484009 257.723877,77.432648 252.997681,78.223686 
M73.308807,106.617813 
	C78.796738,85.041725 84.322952,63.475159 89.693321,41.869850 
	C90.084747,40.295124 89.976250,37.852638 89.016869,36.822796 
	C85.941780,33.521877 76.156769,36.298557 74.885292,40.706989 
	C73.088326,46.937416 71.533638,53.237549 69.860504,59.503910 
	C68.242210,65.564896 66.605080,71.620850 64.632935,78.955757 
	C60.786266,68.893951 57.508137,60.185673 54.119633,51.520565 
	C52.731880,47.971809 50.776924,44.813316 46.281036,45.059772 
	C42.061642,45.291080 39.928150,47.891777 38.602436,51.759872 
	C36.500175,57.893742 34.036129,63.904636 31.680914,69.950325 
	C30.667330,72.552124 29.543087,75.110817 27.940872,78.957260 
	C24.770199,66.505272 21.996040,55.600174 19.216175,44.696526 
	C16.911922,35.658398 16.907824,35.821346 7.573301,35.757004 
	C3.023874,35.725647 2.219571,37.415958 3.274298,41.538033 
	C8.632886,62.480408 13.845058,83.460625 19.010921,104.451599 
	C19.958824,108.303307 21.448954,111.449829 25.841137,111.913437 
	C30.527363,112.408089 32.725815,109.451050 34.185432,105.563965 
	C37.343029,97.155006 40.510227,88.749435 43.732857,80.365303 
	C44.407703,78.609589 45.338516,76.952271 46.599915,74.310074 
	C47.669430,76.844994 48.343903,78.327286 48.926945,79.844711 
	C52.268688,88.541985 55.627357,97.233131 58.895733,105.958031 
	C60.082664,109.126518 61.848728,112.264641 65.423576,111.691078 
	C68.132278,111.256485 70.527657,108.868927 73.308807,106.617813 
M486.478699,50.549316 
	C486.588409,69.358444 486.737305,88.167473 486.786926,106.976761 
	C486.804779,113.740334 491.805786,111.632881 495.405975,111.993408 
	C499.381561,112.391533 501.891052,110.964958 501.854767,106.526627 
	C501.817993,102.030533 501.843781,97.533897 501.850403,93.037506 
	C501.859863,86.613663 503.929108,84.781502 510.294037,85.562386 
	C514.435486,86.070473 516.837708,88.646240 518.007690,92.410332 
	C519.534668,97.322678 520.705811,102.350693 522.370361,107.212425 
	C522.956482,108.924477 524.387085,111.422806 525.706726,111.608315 
	C529.795410,112.183098 534.016235,111.818466 538.842712,111.818466 
	C536.393494,103.092812 534.370850,95.906921 532.360840,88.717491 
	C531.422791,85.361961 531.113403,82.132355 534.253479,79.611092 
	C538.103088,76.520180 539.220764,72.385162 539.043274,67.625961 
	C538.881958,63.302116 539.041016,58.967228 539.002869,54.637703 
	C538.905823,43.627308 531.614746,36.085823 520.674805,35.854752 
	C513.849915,35.710602 507.019135,35.772671 500.191833,35.835773 
	C486.260315,35.964542 486.338562,33.595383 486.478699,50.549316 
M470.075165,111.807259 
	C470.731293,110.356087 472.112762,108.808311 471.934265,107.468307 
	C469.454529,88.850716 467.061157,70.212120 464.007721,51.683956 
	C462.159546,40.469120 455.373199,35.741756 443.406891,35.830357 
	C433.935547,35.900478 426.514069,41.937420 424.888763,51.871094 
	C422.017273,69.421410 419.547516,87.039322 417.117126,104.657570 
	C416.814026,106.854736 417.344086,110.987785 418.220673,111.200165 
	C421.404205,111.971466 425.347870,112.415413 428.130829,111.113930 
	C430.242126,110.126549 431.574402,106.443802 432.298248,103.707779 
	C434.687103,94.678032 434.520660,94.631706 443.982208,94.853485 
	C444.813293,94.872963 445.642456,94.967758 446.473572,94.994812 
	C453.811768,95.233749 454.535034,95.825279 456.133026,102.928200 
	C458.187073,112.058167 458.187073,112.058807 467.668243,112.001640 
	C468.167389,111.998627 468.666443,111.969429 470.075165,111.807259 
M123.503326,112.007927 
	C130.668335,112.007889 137.837982,111.852531 144.996567,112.066895 
	C149.194977,112.192619 150.775970,110.358070 150.527298,106.408813 
	C150.464600,105.413010 150.434616,104.401558 150.532806,103.411499 
	C150.995102,98.750053 149.157547,96.694862 144.253159,96.919075 
	C137.768188,97.215546 131.258621,97.046806 124.761559,96.949158 
	C123.329330,96.927620 120.790291,96.608017 120.660820,96.012566 
	C119.899582,92.511581 118.880928,88.697433 119.651611,85.384956 
	C120.049538,83.674583 123.889740,81.891479 126.302094,81.693352 
	C132.591705,81.176788 138.952942,81.436432 145.283188,81.538002 
	C151.385452,81.635902 150.408722,77.345039 150.549515,73.546028 
	C150.695801,69.598587 150.182617,66.580177 145.070236,66.780243 
	C139.080658,67.014626 133.076126,66.834656 127.080147,66.946411 
	C120.648407,67.066284 119.291351,65.747421 119.711220,59.484673 
	C119.777985,58.488853 119.915039,57.480373 119.828087,56.494644 
	C119.464211,52.369350 121.334129,50.818108 125.409012,50.939022 
	C132.068375,51.136623 138.737976,50.961452 145.402527,51.022282 
	C148.914001,51.054325 150.713425,49.559147 150.529617,45.923660 
	C150.453979,44.427841 150.430359,42.918877 150.534683,41.426491 
	C150.817062,37.387218 149.049911,35.727303 144.957306,35.778149 
	C133.633621,35.918835 122.306129,35.907810 110.982056,35.783260 
	C106.986633,35.739315 105.134697,37.353848 105.140175,41.356785 
	C105.170258,63.351765 105.174774,85.346848 105.132225,107.341797 
	C105.125633,110.749123 106.638794,112.146408 110.009575,112.039307 
	C114.171097,111.907066 118.340012,112.007835 123.503326,112.007927 
M587.461426,81.494919 
	C589.125793,81.494873 590.790405,81.512833 592.454468,81.491516 
	C598.200073,81.417915 598.399475,80.913681 598.541138,72.426414 
	C598.615662,67.961945 596.565857,66.652229 592.430176,66.787445 
	C586.116516,66.993866 579.791077,66.843094 573.470642,66.833641 
	C569.915771,66.828331 567.729736,65.438904 567.971436,61.479168 
	C568.052063,60.157631 567.834229,58.819904 567.878540,57.493767 
	C568.070496,51.738823 569.036194,50.853596 574.708984,50.909763 
	C580.699524,50.969078 586.694763,50.844418 592.680054,51.041386 
	C596.959412,51.182209 598.885071,49.468159 598.465820,45.139767 
	C598.323608,43.671944 598.464233,42.175629 598.492249,40.692642 
	C598.554443,37.399326 596.992920,35.819080 593.652771,35.829277 
	C581.669250,35.865860 569.685303,35.881973 557.702087,35.813457 
	C554.565918,35.795528 553.033020,37.187813 553.024475,40.254845 
	C552.961914,62.703354 552.917358,85.151909 552.868530,107.600456 
	C552.862488,110.366661 554.010498,112.010437 557.007629,112.003288 
	C569.323914,111.973930 581.644287,112.119652 593.951233,111.774940 
	C595.474487,111.732269 597.476257,109.383095 598.253601,107.652390 
	C599.002991,105.983757 598.554749,103.726753 598.452087,101.737564 
	C598.290955,98.616402 596.842407,96.878250 593.412109,96.966248 
	C588.089539,97.102776 582.760864,97.002594 577.434814,97.001030 
	C568.266357,96.998344 567.539062,96.151093 567.801392,87.031784 
	C567.923096,82.797989 569.905457,80.999207 574.017273,81.154907 
	C578.168030,81.312096 582.321960,81.385086 587.461426,81.494919 
M388.135773,85.693871 
	C386.407013,96.998619 386.407013,96.998711 375.024536,96.999008 
	C373.526001,96.999046 372.027405,97.005508 370.528931,96.995346 
	C366.921204,96.970863 365.065643,95.469139 365.116211,91.540779 
	C365.227539,82.887245 365.022003,74.230141 365.008270,65.574394 
	C364.981628,48.817646 363.728394,51.131405 379.804749,51.011444 
	C386.955017,50.958084 387.115814,51.002754 387.439117,58.141392 
	C387.639771,62.572624 389.443878,64.567169 393.948608,64.033142 
	C395.590790,63.838459 397.354828,64.304726 398.914642,63.898582 
	C400.149780,63.576969 401.800598,62.604309 402.165588,61.542282 
	C405.186646,52.751144 400.012329,36.931767 386.830902,35.973354 
	C380.049469,35.480286 373.180664,35.651848 366.382812,36.054256 
	C357.453796,36.582821 350.221527,43.857468 350.072266,52.573288 
	C349.832916,66.551506 349.792023,80.541664 350.090912,94.517723 
	C350.308868,104.710579 356.765198,111.072289 367.066559,111.804619 
	C371.706757,112.134483 376.383362,111.988533 381.043518,111.993996 
	C395.768463,112.011238 401.713959,106.585632 402.822845,92.169159 
	C403.342407,85.414597 401.724152,83.645439 395.097626,84.039536 
	C392.957153,84.166824 390.842010,84.720848 388.135773,85.693871 
z"/>
<path fill="#040404" opacity="1.000000" stroke="none" 
	d="
M253.297577,77.937958 
	C257.723877,77.432648 261.890961,77.484009 265.958649,76.873390 
	C267.848755,76.589668 269.545807,75.019669 271.330383,74.032768 
	C269.689911,72.998909 268.144501,71.292160 266.392944,71.044777 
	C257.660980,69.811516 248.879242,68.919991 240.106293,67.990654 
	C233.409576,67.281250 231.870865,65.793503 232.046890,59.263618 
	C232.329666,48.772167 232.732391,38.283447 233.170273,27.797155 
	C233.245941,25.984632 233.530014,24.118668 234.095352,22.401697 
	C235.265656,18.847485 237.228195,16.030895 241.627243,16.690603 
	C245.618210,17.289112 247.907028,19.693716 248.127472,23.709455 
	C248.620132,32.684006 248.961090,41.666862 249.370621,50.646023 
	C249.482666,53.102901 249.618744,55.558681 249.743805,58.014965 
	C250.150543,58.054562 250.557281,58.094158 250.964020,58.133755 
	C252.642029,48.236607 254.300461,38.336082 256.005585,28.443602 
	C256.993744,22.710651 257.884857,16.952448 259.143951,11.277558 
	C260.061432,7.142295 262.550720,4.378471 267.265747,4.952744 
	C271.067352,5.415771 274.229401,9.151613 273.742462,13.687694 
	C272.606873,24.266932 270.938385,34.788517 269.523529,45.338524 
	C269.108063,48.436867 268.819336,51.552212 268.472504,54.659763 
	C268.880127,54.764965 269.287720,54.870167 269.695343,54.975368 
	C271.129883,50.542591 272.616791,46.125912 273.986816,41.673279 
	C276.089508,34.839321 277.910065,27.910599 280.252991,21.161871 
	C281.431335,17.767570 284.255249,15.726547 288.098145,16.469515 
	C292.021088,17.227957 294.171844,19.814295 294.088318,23.888502 
	C294.047852,25.861582 293.808289,27.870031 293.348053,29.787886 
	C291.758514,36.412209 289.999084,42.995552 288.368225,49.610249 
	C286.981323,55.235485 285.682617,60.882477 284.344910,66.519852 
	C284.717560,66.713821 285.090179,66.907784 285.462830,67.101753 
	C286.332977,65.741341 287.294037,64.429825 288.056702,63.011620 
	C290.656372,58.177475 293.235443,53.330849 295.726532,48.440178 
	C297.604279,44.753666 300.209747,42.431232 304.489655,44.189182 
	C308.965179,46.027489 308.563538,49.632183 307.303589,53.440815 
	C302.341064,68.441711 297.379578,83.443336 292.523895,98.478981 
	C290.530487,104.651535 288.976990,110.967781 286.930145,117.121117 
	C278.277954,143.131653 245.281296,150.037018 226.884369,129.621414 
	C223.342529,125.690941 220.203690,121.300072 217.451859,116.773323 
	C209.413193,103.549805 201.653732,90.156319 193.815567,76.811424 
	C192.891830,75.238724 191.413483,73.511703 191.502808,71.930237 
	C191.658798,69.168503 192.028549,65.505547 193.810745,64.008911 
	C195.550827,62.547653 199.481598,62.474625 201.875473,63.355419 
	C204.272354,64.237305 206.295181,66.811859 207.900894,69.059578 
	C219.218979,84.902885 230.367035,100.867546 241.631912,116.749107 
	C242.867294,118.490799 244.498734,119.951538 245.946487,121.542580 
	C246.515335,121.203926 247.084183,120.865265 247.653015,120.526611 
	C245.974121,115.579918 244.295242,110.633232 242.616348,105.686546 
	C242.979279,105.500450 243.342224,105.314346 243.705154,105.128250 
	C248.032608,110.547043 252.227493,116.081604 256.784241,121.300179 
	C257.872559,122.546577 260.167816,122.739136 261.907959,123.416397 
	C261.626373,121.636971 261.861084,119.526764 260.970886,118.137276 
	C257.692474,113.020164 254.041351,108.141846 250.530426,103.173706 
	C250.914276,102.794518 251.298141,102.415329 251.681992,102.036133 
	C252.924454,103.037857 254.283783,103.925919 255.388489,105.061638 
	C259.451385,109.238525 263.314117,113.618698 267.522400,117.639503 
	C268.558899,118.629829 270.617523,118.550362 272.206268,118.962677 
	C271.914795,117.255257 272.189697,115.079422 271.232758,113.922363 
	C267.312103,109.181755 262.987061,104.777603 258.876495,100.190750 
	C257.733765,98.915588 256.816925,97.437973 255.796478,96.053230 
	C256.126007,95.703941 256.455566,95.354652 256.785126,95.005363 
	C260.331055,97.509758 263.889404,99.996872 267.416168,102.528030 
	C268.631256,103.400108 269.641022,104.726562 270.975494,105.216568 
	C272.300446,105.703072 273.915924,105.398331 275.403992,105.440598 
	C275.004242,103.885422 275.117249,101.751251 274.121338,100.869263 
	C267.765961,95.240913 261.168518,89.885757 254.646118,84.446213 
	C252.620209,82.756653 250.764069,81.035477 253.297577,77.937958 
z"/>
<path fill="#040404" opacity="1.000000" stroke="none" 
	d="
M73.185638,106.984131 
	C70.527657,108.868927 68.132278,111.256485 65.423576,111.691078 
	C61.848728,112.264641 60.082664,109.126518 58.895733,105.958031 
	C55.627357,97.233131 52.268688,88.541985 48.926945,79.844711 
	C48.343903,78.327286 47.669430,76.844994 46.599915,74.310074 
	C45.338516,76.952271 44.407703,78.609589 43.732857,80.365303 
	C40.510227,88.749435 37.343029,97.155006 34.185432,105.563965 
	C32.725815,109.451050 30.527363,112.408089 25.841137,111.913437 
	C21.448954,111.449829 19.958824,108.303307 19.010921,104.451599 
	C13.845058,83.460625 8.632886,62.480408 3.274298,41.538033 
	C2.219571,37.415958 3.023874,35.725647 7.573301,35.757004 
	C16.907824,35.821346 16.911922,35.658398 19.216175,44.696526 
	C21.996040,55.600174 24.770199,66.505272 27.940872,78.957260 
	C29.543087,75.110817 30.667330,72.552124 31.680914,69.950325 
	C34.036129,63.904636 36.500175,57.893742 38.602436,51.759872 
	C39.928150,47.891777 42.061642,45.291080 46.281036,45.059772 
	C50.776924,44.813316 52.731880,47.971809 54.119633,51.520565 
	C57.508137,60.185673 60.786266,68.893951 64.632935,78.955757 
	C66.605080,71.620850 68.242210,65.564896 69.860504,59.503910 
	C71.533638,53.237549 73.088326,46.937416 74.885292,40.706989 
	C76.156769,36.298557 85.941780,33.521877 89.016869,36.822796 
	C89.976250,37.852638 90.084747,40.295124 89.693321,41.869850 
	C84.322952,63.475159 78.796738,85.041725 73.185638,106.984131 
z"/>
<path fill="#060606" opacity="1.000000" stroke="none" 
	d="
M486.478699,50.060322 
	C486.338562,33.595383 486.260315,35.964542 500.191833,35.835773 
	C507.019135,35.772671 513.849915,35.710602 520.674805,35.854752 
	C531.614746,36.085823 538.905823,43.627308 539.002869,54.637703 
	C539.041016,58.967228 538.881958,63.302116 539.043274,67.625961 
	C539.220764,72.385162 538.103088,76.520180 534.253479,79.611092 
	C531.113403,82.132355 531.422791,85.361961 532.360840,88.717491 
	C534.370850,95.906921 536.393494,103.092812 538.842712,111.818466 
	C534.016235,111.818466 529.795410,112.183098 525.706726,111.608315 
	C524.387085,111.422806 522.956482,108.924477 522.370361,107.212425 
	C520.705811,102.350693 519.534668,97.322678 518.007690,92.410332 
	C516.837708,88.646240 514.435486,86.070473 510.294037,85.562386 
	C503.929108,84.781502 501.859863,86.613663 501.850403,93.037506 
	C501.843781,97.533897 501.817993,102.030533 501.854767,106.526627 
	C501.891052,110.964958 499.381561,112.391533 495.405975,111.993408 
	C491.805786,111.632881 486.804779,113.740334 486.786926,106.976761 
	C486.737305,88.167473 486.588409,69.358444 486.478699,50.060322 
M504.052185,51.148785 
	C503.318878,52.494423 502.053986,53.801556 501.953186,55.193020 
	C501.665497,59.164669 501.948303,63.173748 501.819458,67.162056 
	C501.719666,70.251289 503.178833,71.352600 506.065521,71.167572 
	C507.390839,71.082626 508.726196,71.154175 510.057007,71.154015 
	C524.869263,71.152206 524.250427,73.104889 524.158081,56.200111 
	C524.138855,52.673180 522.385498,50.997295 518.945862,50.988823 
	C514.288330,50.977348 509.630615,51.007431 504.052185,51.148785 
z"/>
<path fill="#040404" opacity="1.000000" stroke="none" 
	d="
M469.620361,111.879837 
	C468.666443,111.969429 468.167389,111.998627 467.668243,112.001640 
	C458.187073,112.058807 458.187073,112.058167 456.133026,102.928200 
	C454.535034,95.825279 453.811768,95.233749 446.473572,94.994812 
	C445.642456,94.967758 444.813293,94.872963 443.982208,94.853485 
	C434.520660,94.631706 434.687103,94.678032 432.298248,103.707779 
	C431.574402,106.443802 430.242126,110.126549 428.130829,111.113930 
	C425.347870,112.415413 421.404205,111.971466 418.220673,111.200165 
	C417.344086,110.987785 416.814026,106.854736 417.117126,104.657570 
	C419.547516,87.039322 422.017273,69.421410 424.888763,51.871094 
	C426.514069,41.937420 433.935547,35.900478 443.406891,35.830357 
	C455.373199,35.741756 462.159546,40.469120 464.007721,51.683956 
	C467.061157,70.212120 469.454529,88.850716 471.934265,107.468307 
	C472.112762,108.808311 470.731293,110.356087 469.620361,111.879837 
M449.114929,53.625183 
	C446.963898,52.817398 444.685760,51.181091 442.705322,51.484997 
	C441.320801,51.697464 439.687622,54.426815 439.304077,56.269070 
	C438.023804,62.418377 437.157532,68.662056 436.375031,74.899979 
	C436.217377,76.156464 437.059113,78.671837 437.547241,78.699257 
	C442.085541,78.954178 446.654388,78.900673 451.192902,78.606041 
	C451.732849,78.570984 452.660553,76.494377 452.532471,75.474037 
	C451.646759,68.417183 450.528748,61.389488 449.114929,53.625183 
z"/>
<path fill="#050505" opacity="1.000000" stroke="none" 
	d="
M123.004532,112.007927 
	C118.340012,112.007835 114.171097,111.907066 110.009575,112.039307 
	C106.638794,112.146408 105.125633,110.749123 105.132225,107.341797 
	C105.174774,85.346848 105.170258,63.351765 105.140175,41.356785 
	C105.134697,37.353848 106.986633,35.739315 110.982056,35.783260 
	C122.306129,35.907810 133.633621,35.918835 144.957306,35.778149 
	C149.049911,35.727303 150.817062,37.387218 150.534683,41.426491 
	C150.430359,42.918877 150.453979,44.427841 150.529617,45.923660 
	C150.713425,49.559147 148.914001,51.054325 145.402527,51.022282 
	C138.737976,50.961452 132.068375,51.136623 125.409012,50.939022 
	C121.334129,50.818108 119.464211,52.369350 119.828087,56.494644 
	C119.915039,57.480373 119.777985,58.488853 119.711220,59.484673 
	C119.291351,65.747421 120.648407,67.066284 127.080147,66.946411 
	C133.076126,66.834656 139.080658,67.014626 145.070236,66.780243 
	C150.182617,66.580177 150.695801,69.598587 150.549515,73.546028 
	C150.408722,77.345039 151.385452,81.635902 145.283188,81.538002 
	C138.952942,81.436432 132.591705,81.176788 126.302094,81.693352 
	C123.889740,81.891479 120.049538,83.674583 119.651611,85.384956 
	C118.880928,88.697433 119.899582,92.511581 120.660820,96.012566 
	C120.790291,96.608017 123.329330,96.927620 124.761559,96.949158 
	C131.258621,97.046806 137.768188,97.215546 144.253159,96.919075 
	C149.157547,96.694862 150.995102,98.750053 150.532806,103.411499 
	C150.434616,104.401558 150.464600,105.413010 150.527298,106.408813 
	C150.775970,110.358070 149.194977,112.192619 144.996567,112.066895 
	C137.837982,111.852531 130.668335,112.007889 123.004532,112.007927 
z"/>
<path fill="#010101" opacity="1.000000" stroke="none" 
	d="
M586.967957,81.494949 
	C582.321960,81.385086 578.168030,81.312096 574.017273,81.154907 
	C569.905457,80.999207 567.923096,82.797989 567.801392,87.031784 
	C567.539062,96.151093 568.266357,96.998344 577.434814,97.001030 
	C582.760864,97.002594 588.089539,97.102776 593.412109,96.966248 
	C596.842407,96.878250 598.290955,98.616402 598.452087,101.737564 
	C598.554749,103.726753 599.002991,105.983757 598.253601,107.652390 
	C597.476257,109.383095 595.474487,111.732269 593.951233,111.774940 
	C581.644287,112.119652 569.323914,111.973930 557.007629,112.003288 
	C554.010498,112.010437 552.862488,110.366661 552.868530,107.600456 
	C552.917358,85.151909 552.961914,62.703354 553.024475,40.254845 
	C553.033020,37.187813 554.565918,35.795528 557.702087,35.813457 
	C569.685303,35.881973 581.669250,35.865860 593.652771,35.829277 
	C596.992920,35.819080 598.554443,37.399326 598.492249,40.692642 
	C598.464233,42.175629 598.323608,43.671944 598.465820,45.139767 
	C598.885071,49.468159 596.959412,51.182209 592.680054,51.041386 
	C586.694763,50.844418 580.699524,50.969078 574.708984,50.909763 
	C569.036194,50.853596 568.070496,51.738823 567.878540,57.493767 
	C567.834229,58.819904 568.052063,60.157631 567.971436,61.479168 
	C567.729736,65.438904 569.915771,66.828331 573.470642,66.833641 
	C579.791077,66.843094 586.116516,66.993866 592.430176,66.787445 
	C596.565857,66.652229 598.615662,67.961945 598.541138,72.426414 
	C598.399475,80.913681 598.200073,81.417915 592.454468,81.491516 
	C590.790405,81.512833 589.125793,81.494873 586.967957,81.494949 
z"/>
<path fill="#020202" opacity="1.000000" stroke="none" 
	d="
M388.425537,85.386772 
	C390.842010,84.720848 392.957153,84.166824 395.097626,84.039536 
	C401.724152,83.645439 403.342407,85.414597 402.822845,92.169159 
	C401.713959,106.585632 395.768463,112.011238 381.043518,111.993996 
	C376.383362,111.988533 371.706757,112.134483 367.066559,111.804619 
	C356.765198,111.072289 350.308868,104.710579 350.090912,94.517723 
	C349.792023,80.541664 349.832916,66.551506 350.072266,52.573288 
	C350.221527,43.857468 357.453796,36.582821 366.382812,36.054256 
	C373.180664,35.651848 380.049469,35.480286 386.830902,35.973354 
	C400.012329,36.931767 405.186646,52.751144 402.165588,61.542282 
	C401.800598,62.604309 400.149780,63.576969 398.914642,63.898582 
	C397.354828,64.304726 395.590790,63.838459 393.948608,64.033142 
	C389.443878,64.567169 387.639771,62.572624 387.439117,58.141392 
	C387.115814,51.002754 386.955017,50.958084 379.804749,51.011444 
	C363.728394,51.131405 364.981628,48.817646 365.008270,65.574394 
	C365.022003,74.230141 365.227539,82.887245 365.116211,91.540779 
	C365.065643,95.469139 366.921204,96.970863 370.528931,96.995346 
	C372.027405,97.005508 373.526001,96.999046 375.024536,96.999008 
	C386.407013,96.998711 386.407013,96.998619 388.425537,85.386772 
z"/>
<path fill="#F7F7F7" opacity="1.000000" stroke="none" 
	d="
M504.512573,51.084236 
	C509.630615,51.007431 514.288330,50.977348 518.945862,50.988823 
	C522.385498,50.997295 524.138855,52.673180 524.158081,56.200111 
	C524.250427,73.104889 524.869263,71.152206 510.057007,71.154015 
	C508.726196,71.154175 507.390839,71.082626 506.065521,71.167572 
	C503.178833,71.352600 501.719666,70.251289 501.819458,67.162056 
	C501.948303,63.173748 501.665497,59.164669 501.953186,55.193020 
	C502.053986,53.801556 503.318878,52.494423 504.512573,51.084236 
z"/>
<path fill="#F0F0F0" opacity="1.000000" stroke="none" 
	d="
M449.300140,53.988808 
	C450.528748,61.389488 451.646759,68.417183 452.532471,75.474037 
	C452.660553,76.494377 451.732849,78.570984 451.192902,78.606041 
	C446.654388,78.900673 442.085541,78.954178 437.547241,78.699257 
	C437.059113,78.671837 436.217377,76.156464 436.375031,74.899979 
	C437.157532,68.662056 438.023804,62.418377 439.304077,56.269070 
	C439.687622,54.426815 441.320801,51.697464 442.705322,51.484997 
	C444.685760,51.181091 446.963898,52.817398 449.300140,53.988808 
z"/>
</svg>